<svg width="35" height="24" viewBox="0 0 35 24" fill="none" xmlns="http://www.w3.org/2000/svg">
<path fill-rule="evenodd" clip-rule="evenodd" d="M11.036 0C12.4218 3.13997e-05 13.7779 0.401153 14.9407 1.15495C16.1035 1.90874 17.0233 2.98298 17.589 4.24801C18.1547 5.51303 18.3422 6.91475 18.1288 8.28398C17.9154 9.65321 17.3103 10.9314 16.3865 11.9643C17.3103 12.9972 17.9154 14.2754 18.1288 15.6446C18.3422 17.0138 18.1547 18.4155 17.589 19.6806C17.0233 20.9456 16.1035 22.0198 14.9407 22.7736C13.7779 23.5274 12.4218 23.9285 11.036 23.9286H4.65509C3.59738 23.9286 2.58299 23.5084 1.83508 22.7605C1.08717 22.0126 0.666992 20.9982 0.666992 19.9405V3.9881C0.666992 2.93039 1.08717 1.916 1.83508 1.16809C2.58299 0.420173 3.59738 0 4.65509 0H11.036ZM26.1908 6.38095C30.8856 6.38095 34.167 10.6195 34.167 15.1548C34.167 15.7496 33.9454 16.3231 33.5455 16.7634C33.1455 17.2038 32.5959 17.4793 32.0038 17.5365L31.7741 17.5476H30.9829C31.4631 17.5486 31.9318 17.6939 32.3283 17.9649C32.7247 18.2358 33.0305 18.6197 33.2058 19.0667C33.3812 19.5138 33.4179 20.0032 33.3114 20.4714C33.2049 20.9396 32.9599 21.3649 32.6084 21.692C31.1791 23.0209 29.1213 23.9286 26.1908 23.9286C21.496 23.9286 18.2146 19.69 18.2146 15.1548C18.2146 10.6195 21.496 6.38095 26.1908 6.38095ZM11.036 14.3571H5.45271V19.1429H11.036C11.6506 19.1426 12.2414 18.9058 12.6861 18.4818C13.1309 18.0577 13.3954 17.4788 13.4249 16.865C13.4545 16.2512 13.2467 15.6496 12.8448 15.1848C12.4428 14.7199 11.8774 14.4276 11.2658 14.3683L11.036 14.3571ZM30.9701 17.5476H23.6384C24.2717 18.5765 25.2783 19.1429 26.1908 19.1429C28.0461 19.1429 28.8995 18.6053 29.3446 18.1889C29.7858 17.7782 30.3674 17.5492 30.9701 17.5476ZM26.1892 11.1667C25.2767 11.1667 24.2701 11.733 23.6368 12.7619H28.7416C28.1083 11.733 27.1017 11.1667 26.1892 11.1667ZM11.036 4.78571H5.45271V9.57143H11.036C11.6707 9.57143 12.2793 9.31932 12.728 8.87058C13.1768 8.42183 13.4289 7.8132 13.4289 7.17857C13.4289 6.54395 13.1768 5.93531 12.728 5.48657C12.2793 5.03782 11.6707 4.78571 11.036 4.78571ZM28.5837 1.59524C29.2183 1.59524 29.8269 1.84734 30.2757 2.29609C30.7244 2.74484 30.9765 3.35347 30.9765 3.9881C30.9765 4.62272 30.7244 5.23135 30.2757 5.6801C29.8269 6.12885 29.2183 6.38095 28.5837 6.38095H23.7979C23.1633 6.38095 22.5547 6.12885 22.1059 5.6801C21.6572 5.23135 21.4051 4.62272 21.4051 3.9881C21.4051 3.35347 21.6572 2.74484 22.1059 2.29609C22.5547 1.84734 23.1633 1.59524 23.7979 1.59524H28.5837Z" fill="#BABABA"/>
</svg>
