<svg width="32" height="16" viewBox="0 0 32 16" fill="none" xmlns="http://www.w3.org/2000/svg">
<path d="M14.617 16H8.41699C6.27283 16 4.44538 15.2197 2.93464 13.6592C1.42391 12.0987 0.668027 10.2123 0.666993 8C0.66596 5.78773 1.42184 3.90133 2.93464 2.3408C4.44744 0.780267 6.27489 0 8.41699 0H14.617V3.2H8.41699C7.12533 3.2 6.02741 3.66667 5.12324 4.6C4.21908 5.53333 3.76699 6.66666 3.76699 8C3.76699 9.33333 4.21908 10.4667 5.12324 11.4C6.02741 12.3333 7.12533 12.8 8.41699 12.8H14.617V16ZM9.96699 9.6V6.4H22.367V9.6H9.96699ZM17.717 16V12.8H23.917C25.2087 12.8 26.3066 12.3333 27.2107 11.4C28.1149 10.4667 28.567 9.33333 28.567 8C28.567 6.66666 28.1149 5.53333 27.2107 4.6C26.3066 3.66667 25.2087 3.2 23.917 3.2H17.717V0H23.917C26.0612 0 27.8891 0.780267 29.4009 2.3408C30.9127 3.90133 31.668 5.78773 31.667 8C31.666 10.2123 30.9101 12.0992 29.3993 13.6608C27.8886 15.2224 26.0612 16.0021 23.917 16H17.717Z" fill="#BABABA"/>
</svg>
