<svg width="19" height="19" viewBox="0 0 19 19" fill="none" xmlns="http://www.w3.org/2000/svg">
<path fill-rule="evenodd" clip-rule="evenodd" d="M13.9151 1.28885C13.7369 1.00421 13.4745 0.782198 13.1642 0.653708C12.854 0.525219 12.5114 0.496647 12.1842 0.571972L9.86181 1.10543C9.6238 1.16013 9.37648 1.16013 9.13847 1.10543L6.81606 0.571972C6.48883 0.496647 6.14626 0.525219 5.83604 0.653708C5.52581 0.782198 5.26336 1.00421 5.08522 1.28885L3.81939 3.30901C3.69022 3.51568 3.51585 3.69006 3.30918 3.82051L1.28901 5.08635C1.00487 5.26433 0.783182 5.52635 0.654721 5.83605C0.526259 6.14574 0.497396 6.48775 0.572139 6.8146L1.1056 9.1396C1.1601 9.37719 1.1601 9.62404 1.1056 9.86164L0.572139 12.1853C0.497106 12.5124 0.525823 12.8547 0.654299 13.1646C0.782774 13.4746 1.00463 13.7368 1.28901 13.9149L3.30918 15.1807C3.51585 15.3099 3.69022 15.4843 3.82068 15.6909L5.08651 17.7111C5.45076 18.2936 6.14568 18.5817 6.81606 18.428L9.13847 17.8945C9.37648 17.8398 9.6238 17.8398 9.86181 17.8945L12.1855 18.428C12.5126 18.503 12.8548 18.4743 13.1648 18.3458C13.4748 18.2173 13.737 17.9955 13.9151 17.7111L15.1809 15.6909C15.3101 15.4843 15.4844 15.3099 15.6911 15.1807L17.7126 13.9149C17.997 13.7366 18.2187 13.474 18.347 13.1638C18.4752 12.8536 18.5036 12.5111 18.4281 12.1841L17.896 9.86164C17.8413 9.62363 17.8413 9.37631 17.896 9.13831L18.4294 6.8146C18.5046 6.4877 18.4761 6.1455 18.3478 5.83556C18.2196 5.52561 17.998 5.26329 17.7138 5.08506L15.6924 3.81922C15.486 3.68982 15.3116 3.51539 15.1822 3.30901L13.9151 1.28885ZM13.2653 6.61956C13.3452 6.47265 13.365 6.30048 13.3206 6.13928C13.2761 5.97807 13.1708 5.8404 13.0269 5.75523C12.883 5.67005 12.7117 5.64402 12.549 5.6826C12.3863 5.72119 12.2449 5.82138 12.1545 5.9621L8.77681 11.679L6.73726 9.72601C6.67676 9.66389 6.60436 9.61458 6.52439 9.58104C6.44441 9.5475 6.3585 9.53041 6.27178 9.53079C6.18506 9.53116 6.0993 9.549 6.01962 9.58324C5.93994 9.61748 5.86798 9.66741 5.80802 9.73007C5.74805 9.79272 5.70132 9.86681 5.67061 9.94791C5.6399 10.029 5.62584 10.1155 5.62927 10.2021C5.63269 10.2888 5.65354 10.3739 5.69055 10.4523C5.72757 10.5307 5.78 10.6009 5.84472 10.6586L8.47197 13.1761C8.54229 13.2433 8.62689 13.2938 8.71945 13.3237C8.81201 13.3537 8.91015 13.3623 9.00652 13.349C9.1029 13.3358 9.19503 13.3009 9.27603 13.247C9.35703 13.1931 9.42481 13.1216 9.47431 13.0378L13.2653 6.61956Z" fill="#00CCFF"/>
</svg>
