<svg width="32" height="22" viewBox="0 0 32 22" fill="none" xmlns="http://www.w3.org/2000/svg">
<path d="M13.067 15.7143L21.1115 11L13.067 6.28571V15.7143ZM30.985 3.41C31.1865 4.14857 31.326 5.13857 31.419 6.39571C31.5275 7.65286 31.574 8.73714 31.574 9.68L31.667 11C31.667 14.4414 31.419 16.9714 30.985 18.59C30.5975 20.0043 29.6985 20.9157 28.3035 21.3086C27.575 21.5129 26.242 21.6543 24.196 21.7486C22.181 21.8586 20.3365 21.9057 18.6315 21.9057L16.167 22C9.67249 22 5.62699 21.7486 4.03049 21.3086C2.63549 20.9157 1.73649 20.0043 1.34899 18.59C1.14749 17.8514 1.00799 16.8614 0.914992 15.6043C0.806492 14.3471 0.759992 13.2629 0.759992 12.32L0.666992 11C0.666992 7.55857 0.914992 5.02857 1.34899 3.41C1.73649 1.99571 2.63549 1.08429 4.03049 0.691429C4.75899 0.487143 6.09199 0.345714 8.13799 0.251428C10.153 0.141428 11.9975 0.0942856 13.7025 0.0942856L16.167 0C22.6615 0 26.707 0.251429 28.3035 0.691429C29.6985 1.08429 30.5975 1.99571 30.985 3.41Z" fill="#BABABA"/>
</svg>
